<mxfile host="app.diagrams.net" modified="2022-09-22T09:17:14.923Z" agent="5.0 (Macintosh; Intel Mac OS X 10_15_7) AppleWebKit/537.36 (KHTML, like Gecko) Chrome/105.0.0.0 Safari/537.36" etag="Q0vDa1jDzF6qnUjd1ylO" version="20.3.3" type="github">
  <diagram id="QYALUe_-tc_HUjauDAMi" name="Page-1">
    <mxGraphModel dx="2276" dy="794" grid="1" gridSize="10" guides="1" tooltips="1" connect="1" arrows="1" fold="1" page="1" pageScale="1" pageWidth="850" pageHeight="1100" math="0" shadow="0">
      <root>
        <mxCell id="0" />
        <mxCell id="1" parent="0" />
        <mxCell id="W66tCanRUAg5-niA_C3P-1" value="&lt;font style=&quot;font-size: 18px;&quot;&gt;Execution Client&lt;/font&gt;" style="rounded=1;whiteSpace=wrap;html=1;fillColor=#f8cecc;strokeColor=#b85450;" vertex="1" parent="1">
          <mxGeometry x="120" y="420" width="400" height="100" as="geometry" />
        </mxCell>
        <mxCell id="W66tCanRUAg5-niA_C3P-2" value="&lt;font style=&quot;font-size: 18px;&quot;&gt;Consensus Client&lt;/font&gt;" style="rounded=1;whiteSpace=wrap;html=1;fillColor=#dae8fc;strokeColor=#6c8ebf;" vertex="1" parent="1">
          <mxGeometry x="120" y="240" width="400" height="100" as="geometry" />
        </mxCell>
        <mxCell id="W66tCanRUAg5-niA_C3P-3" value="&lt;font style=&quot;font-size: 18px;&quot;&gt;Validator Client&lt;/font&gt;" style="rounded=1;whiteSpace=wrap;html=1;fillColor=#f5f5f5;fontColor=#333333;strokeColor=#666666;" vertex="1" parent="1">
          <mxGeometry x="120" y="60" width="400" height="100" as="geometry" />
        </mxCell>
        <mxCell id="W66tCanRUAg5-niA_C3P-4" value="&lt;font style=&quot;font-size: 16px;&quot;&gt;Geth、Erigon、Nethermind、Besu&lt;/font&gt;" style="text;html=1;strokeColor=none;fillColor=none;align=center;verticalAlign=middle;whiteSpace=wrap;rounded=0;fontSize=18;" vertex="1" parent="1">
          <mxGeometry x="170" y="530" width="300" height="20" as="geometry" />
        </mxCell>
        <mxCell id="W66tCanRUAg5-niA_C3P-5" value="&lt;span style=&quot;font-size: 16px;&quot;&gt;Prysm、LightHouse、Teku、Nimbus&lt;/span&gt;" style="text;html=1;strokeColor=none;fillColor=none;align=center;verticalAlign=middle;whiteSpace=wrap;rounded=0;fontSize=18;" vertex="1" parent="1">
          <mxGeometry x="170" y="350" width="300" height="20" as="geometry" />
        </mxCell>
        <mxCell id="W66tCanRUAg5-niA_C3P-6" value="Node Operator" style="shape=umlActor;verticalLabelPosition=bottom;verticalAlign=top;html=1;outlineConnect=0;fontSize=16;strokeWidth=1.54;" vertex="1" parent="1">
          <mxGeometry x="-20" y="350" width="30" height="60" as="geometry" />
        </mxCell>
        <mxCell id="W66tCanRUAg5-niA_C3P-7" value="" style="shape=curlyBracket;whiteSpace=wrap;html=1;rounded=1;fontSize=16;strokeWidth=1.5;" vertex="1" parent="1">
          <mxGeometry x="20" y="285" width="100" height="185" as="geometry" />
        </mxCell>
        <mxCell id="W66tCanRUAg5-niA_C3P-10" value="" style="shape=curlyBracket;whiteSpace=wrap;html=1;rounded=1;flipH=1;strokeWidth=1.5;fontSize=16;" vertex="1" parent="1">
          <mxGeometry x="520" y="100" width="120" height="370" as="geometry" />
        </mxCell>
        <mxCell id="W66tCanRUAg5-niA_C3P-11" value="Validator" style="shape=umlActor;verticalLabelPosition=bottom;verticalAlign=top;html=1;outlineConnect=0;strokeWidth=1.5;fontSize=16;" vertex="1" parent="1">
          <mxGeometry x="650" y="255" width="30" height="60" as="geometry" />
        </mxCell>
        <mxCell id="W66tCanRUAg5-niA_C3P-12" value="&lt;span style=&quot;font-size: 16px;&quot;&gt;Prysm、LightHouse、Teku、Nimbus&lt;/span&gt;" style="text;html=1;strokeColor=none;fillColor=none;align=center;verticalAlign=middle;whiteSpace=wrap;rounded=0;fontSize=18;" vertex="1" parent="1">
          <mxGeometry x="170" y="170" width="300" height="20" as="geometry" />
        </mxCell>
      </root>
    </mxGraphModel>
  </diagram>
</mxfile>
